<svg width="109" height="28" viewBox="0 0 109 28" fill="none" xmlns="http://www.w3.org/2000/svg">
<path d="M13.1672 21.1955V27.25H9.85865V21.1955H0V18.1699H3.27344V15.1442H6.5373V12.1217H9.85865V9.09289H3.27344V6.06405H6.5373V3.03202H9.85865V0H13.1768V3.03202H16.4854V6.06405H19.7365V9.09289H13.1704V12.1217H16.4886V15.1442H19.7492V18.1699H23.0067V21.1955H13.1672Z" fill="#131316"/>
<path d="M28.4798 20.2129V7.06653H33.3757C34.8784 7.06653 36.0484 7.43068 36.886 8.15898C37.7235 8.87493 38.1423 9.8748 38.1423 11.1586C38.1423 12.0103 37.9514 12.751 37.5696 13.3805C37.1877 13.9977 36.6396 14.4729 35.9253 14.8062C35.2232 15.1272 34.3734 15.2876 33.3757 15.2876H30.4751V20.2129H28.4798ZM30.4751 13.4731H33.3203C34.2194 13.4731 34.903 13.2817 35.371 12.8991C35.8391 12.5041 36.0731 11.9239 36.0731 11.1586C36.0731 10.4056 35.8391 9.84394 35.371 9.47362C34.903 9.09095 34.2194 8.89962 33.3203 8.89962H30.4751V13.4731Z" fill="#131316"/>
<path d="M39.6886 20.2129V10.3624H41.6469V20.2129H39.6886ZM39.6516 8.93665V6.97395H41.6839V8.93665H39.6516Z" fill="#131316"/>
<path d="M44.2085 20.2129V10.3624H46.0005L46.0744 12.9917L45.8343 12.8621C45.9451 12.2202 46.1545 11.7017 46.4624 11.3067C46.7703 10.9117 47.146 10.6216 47.5894 10.4365C48.0328 10.2389 48.5132 10.1402 49.0305 10.1402C49.7695 10.1402 50.3791 10.3068 50.8595 10.6401C51.3522 10.9611 51.7217 11.4055 51.968 11.9733C52.2266 12.5288 52.356 13.1645 52.356 13.8804V20.2129H50.3976V14.4729C50.3976 13.8928 50.336 13.4052 50.2129 13.0102C50.0897 12.6152 49.8865 12.3127 49.6032 12.1029C49.3199 11.893 48.9504 11.7881 48.4947 11.7881C47.8049 11.7881 47.2445 12.0165 46.8134 12.4732C46.3824 12.9299 46.1668 13.5965 46.1668 14.4729V20.2129H44.2085Z" fill="#131316"/>
<path d="M58.584 20.4351C57.6232 20.4351 56.7919 20.2253 56.0898 19.8056C55.4001 19.3859 54.8643 18.7872 54.4825 18.0095C54.113 17.2318 53.9282 16.3245 53.9282 15.2876C53.9282 14.2508 54.113 13.3496 54.4825 12.5843C54.8643 11.8066 55.4001 11.208 56.0898 10.7883C56.7796 10.3562 57.5925 10.1402 58.5285 10.1402C59.4153 10.1402 60.1974 10.35 60.8749 10.7697C61.5523 11.1771 62.0757 11.7696 62.4452 12.5473C62.8271 13.3249 63.018 14.2631 63.018 15.3617V15.8616H55.9605C56.0098 16.8245 56.2622 17.5466 56.718 18.028C57.186 18.5094 57.8142 18.7501 58.6024 18.7501C59.1813 18.7501 59.6617 18.6144 60.0435 18.3428C60.4253 18.0712 60.6901 17.7071 60.8379 17.2503L62.8702 17.38C62.6115 18.2934 62.1004 19.0341 61.3367 19.6019C60.5854 20.1574 59.6678 20.4351 58.584 20.4351ZM55.9605 14.3804H60.9488C60.8872 13.5039 60.6347 12.8559 60.1913 12.4362C59.7602 12.0165 59.2059 11.8066 58.5285 11.8066C57.8265 11.8066 57.2476 12.0288 56.7919 12.4732C56.3485 12.9053 56.0713 13.541 55.9605 14.3804Z" fill="#131316"/>
<path d="M68.4202 20.4351C67.4965 20.4351 66.7143 20.2931 66.0739 20.0092C65.4457 19.7253 64.9592 19.3365 64.6143 18.8427C64.2695 18.3366 64.0724 17.7565 64.0231 17.1022L66.0369 17.0096C66.1355 17.5528 66.3695 17.9848 66.739 18.3058C67.1085 18.6267 67.6689 18.7872 68.4202 18.7872C69.036 18.7872 69.5226 18.6884 69.8797 18.4909C70.2369 18.2934 70.4155 17.9786 70.4155 17.5466C70.4155 17.3121 70.3539 17.1146 70.2308 16.9541C70.1199 16.7813 69.8982 16.6393 69.5657 16.5282C69.2331 16.4048 68.7404 16.2875 68.0877 16.1764C67.1146 15.9913 66.351 15.7752 65.7967 15.5284C65.2425 15.2815 64.8484 14.9667 64.6143 14.584C64.3803 14.2014 64.2633 13.7385 64.2633 13.1953C64.2633 12.2942 64.5959 11.5598 65.261 10.9919C65.9384 10.4241 66.9114 10.1402 68.18 10.1402C69.0299 10.1402 69.7443 10.2883 70.3231 10.5846C70.902 10.8685 71.3516 11.2573 71.6718 11.7511C72.0044 12.2325 72.2138 12.7756 72.3 13.3805L70.2862 13.4916C70.2246 13.146 70.1014 12.8497 69.9167 12.6028C69.7443 12.3436 69.5102 12.1461 69.2146 12.0103C68.919 11.8622 68.568 11.7881 68.1616 11.7881C67.5334 11.7881 67.0654 11.9116 66.7574 12.1584C66.4495 12.4053 66.2956 12.7263 66.2956 13.1213C66.2956 13.4175 66.3633 13.6582 66.4988 13.8434C66.6466 14.0286 66.8806 14.1829 67.2009 14.3063C67.5211 14.4174 67.946 14.5161 68.4756 14.6026C69.4979 14.7754 70.2985 14.9914 70.8774 15.2506C71.4563 15.4975 71.8627 15.8061 72.0967 16.1764C72.3308 16.5467 72.4478 16.9973 72.4478 17.5281C72.4478 18.1453 72.2753 18.6699 71.9305 19.1019C71.5856 19.534 71.1114 19.8673 70.5079 20.1018C69.9044 20.324 69.2085 20.4351 68.4202 20.4351Z" fill="#131316"/>
<path d="M77.4682 20.2129C76.5322 20.2129 75.8424 19.9969 75.399 19.5648C74.9556 19.1328 74.7339 18.4601 74.7339 17.5466V8.04788H76.6923V17.3985C76.6923 17.8552 76.7908 18.17 76.9879 18.3428C77.1849 18.5156 77.4867 18.602 77.8932 18.602H79.2973V20.2129H77.4682ZM73.2374 11.9733V10.3624H79.2973V11.9733H73.2374Z" fill="#131316"/>
<path d="M83.4979 20.4351C82.4756 20.4351 81.6565 20.2006 81.0407 19.7315C80.4372 19.2624 80.1354 18.602 80.1354 17.7503C80.1354 16.8985 80.3879 16.2381 80.8929 15.7691C81.4102 15.2876 82.2046 14.942 83.2762 14.7322L86.6571 14.0841C86.6571 13.3188 86.4785 12.751 86.1214 12.3806C85.7642 11.998 85.2345 11.8066 84.5325 11.8066C83.9043 11.8066 83.4117 11.9486 83.0545 12.2325C82.6973 12.5041 82.451 12.9114 82.3155 13.4546L80.3017 13.325C80.4865 12.3374 80.9422 11.5598 81.6689 10.9919C82.4079 10.4241 83.3624 10.1402 84.5325 10.1402C85.8627 10.1402 86.8727 10.4982 87.5624 11.2141C88.2645 11.9177 88.6155 12.9114 88.6155 14.1952V18.028C88.6155 18.2626 88.6524 18.4292 88.7263 18.528C88.8126 18.6144 88.948 18.6576 89.1328 18.6576H89.4838V20.2129C89.4222 20.2253 89.3237 20.2376 89.1882 20.2499C89.0527 20.2623 88.9111 20.2685 88.7633 20.2685C88.3445 20.2685 87.9812 20.2006 87.6733 20.0648C87.3777 19.929 87.156 19.7068 87.0082 19.3982C86.8604 19.0773 86.7865 18.6514 86.7865 18.1206L86.9897 18.2132C86.8912 18.6452 86.6756 19.0279 86.3431 19.3612C86.0228 19.6945 85.6102 19.9599 85.1052 20.1574C84.6126 20.3425 84.0768 20.4351 83.4979 20.4351ZM83.812 18.8798C84.4032 18.8798 84.9082 18.7687 85.3269 18.5465C85.7457 18.3119 86.0721 17.991 86.3061 17.5836C86.5401 17.1763 86.6571 16.7134 86.6571 16.1949V15.5654L83.775 16.1209C83.1838 16.232 82.765 16.411 82.5187 16.6578C82.2847 16.8924 82.1677 17.1948 82.1677 17.5651C82.1677 17.9848 82.3093 18.3119 82.5926 18.5465C82.8882 18.7687 83.2947 18.8798 83.812 18.8798Z" fill="#131316"/>
<path d="M90.6776 20.2129V7.06653H92.636V15.2321L97.0515 10.3624H99.5272L95.6844 14.51L99.675 20.2129H97.421L94.3726 15.732L92.636 17.5836V20.2129H90.6776Z" fill="#131316"/>
<path d="M104.566 20.4351C103.605 20.4351 102.774 20.2253 102.072 19.8056C101.382 19.3859 100.846 18.7872 100.465 18.0095C100.095 17.2318 99.9103 16.3245 99.9103 15.2876C99.9103 14.2508 100.095 13.3496 100.465 12.5843C100.846 11.8066 101.382 11.208 102.072 10.7883C102.762 10.3562 103.574 10.1402 104.511 10.1402C105.397 10.1402 106.179 10.35 106.857 10.7697C107.534 11.1771 108.058 11.7696 108.427 12.5473C108.809 13.3249 109 14.2631 109 15.3617V15.8616H101.943C101.992 16.8245 102.244 17.5466 102.7 18.028C103.168 18.5094 103.796 18.7501 104.584 18.7501C105.163 18.7501 105.644 18.6144 106.026 18.3428C106.407 18.0712 106.672 17.7071 106.82 17.2503L108.852 17.38C108.594 18.2934 108.082 19.0341 107.319 19.6019C106.567 20.1574 105.65 20.4351 104.566 20.4351ZM101.943 14.3804H106.931C106.869 13.5039 106.617 12.8559 106.173 12.4362C105.742 12.0165 105.188 11.8066 104.511 11.8066C103.809 11.8066 103.23 12.0288 102.774 12.4732C102.331 12.9053 102.053 13.541 101.943 14.3804Z" fill="#131316"/>
</svg>
